<svg width="311" height="176" viewBox="0 0 311 176" fill="none" xmlns="http://www.w3.org/2000/svg">
<g clip-path="url(#clip0)">
<path d="M158.217 36.5445V38.9666C158.189 42.931 156.907 46.7845 154.554 49.9726L154.377 50.1863C153.353 51.5018 152.184 52.6967 150.892 53.7482L150.501 54.0331H150.465C149.453 54.8205 148.37 55.512 147.23 56.099L147.016 56.2414C144.302 57.6529 141.17 58.0325 138.198 57.31L137.914 57.2388C137.028 56.9967 136.17 56.6625 135.354 56.2414L135.105 56.0634H135.069C132.195 54.5727 129.692 52.4548 127.744 49.8658C125.356 46.719 124.047 42.8837 124.011 38.931V34.0869C131.336 34.0869 136.242 29.2072 136.242 26.7495C140.154 34.2294 150.892 36.5445 158.217 36.5445Z" fill="#9CD7FF"/>
<path d="M135.46 56.3125C137.264 57.2434 139.263 57.7291 141.292 57.7291C143.32 57.7291 145.32 57.2434 147.123 56.3125L147.301 56.17C148.588 55.4921 149.793 54.6674 150.892 53.7123V63.08L148.439 65.1814C146.424 66.9863 143.816 67.9841 141.114 67.9841C138.411 67.9841 135.803 66.9863 133.789 65.1814L131.336 63.08V53.6411C132.49 54.5902 133.741 55.4141 135.069 56.0988L135.46 56.3125Z" fill="#9CD7FF"/>
<path d="M207.037 75.6533V85.4483C207.037 86.7425 206.524 87.9837 205.61 88.8988C204.697 89.8139 203.458 90.3281 202.166 90.3281H104.49C103.198 90.3281 101.959 89.8139 101.045 88.8988C100.132 87.9837 99.6184 86.7425 99.6184 85.4483V75.6533H207.037Z" fill="#9CD7FF"/>
<path d="M209.491 2.27979V24.2919H185.063L175.32 31.6293V2.27979H209.491Z" fill="#9CD7FF"/>
<path d="M164.937 91.7172L168.6 109.918H138.056L141.718 91.7172V90.3281H164.937V91.7172Z" fill="#9CD7FF"/>
<path d="M170.413 75.6534H111.815C111.824 72.4161 113.112 69.3141 115.397 67.025C117.682 64.7359 120.779 63.4457 124.011 63.4363H131.336V63.1514L133.789 65.2172C135.803 67.0221 138.411 68.0199 141.114 68.0199C143.816 68.0199 146.424 67.0221 148.439 65.2172L150.892 63.1514V63.4363H158.217C161.449 63.4457 164.545 64.7359 166.831 67.025C169.116 69.3141 170.404 72.4161 170.413 75.6534Z" fill="#6BF178"/>
<path d="M207.037 24.2916V75.6532H170.413C170.404 72.4159 169.116 69.3139 166.831 67.0248C164.545 64.7357 161.449 63.4455 158.217 63.4361H159.177C159.773 63.4869 160.372 63.3863 160.919 63.1435C161.466 62.9006 161.943 62.5235 162.306 62.047C162.783 61.4227 163.045 60.6604 163.053 59.8743C163.05 59.3218 162.92 58.7774 162.674 58.2832C162.427 57.7891 162.07 57.3585 161.63 57.0248C160.777 56.2412 157.115 52.5725 154.554 49.9724C156.907 46.7843 158.189 42.9308 158.217 38.9663V31.3084C158.217 23.223 158.217 14.5322 141.114 14.5322C124.011 14.5322 124.011 23.223 124.011 31.3084V38.9663C124.047 42.919 125.356 46.7544 127.744 49.9011C128.783 51.2911 129.989 52.5473 131.336 53.6411C129.959 52.5581 128.728 51.301 127.673 49.9011C126.393 51.219 124.829 52.7862 123.442 54.1397L120.526 57.0248C119.926 57.5004 119.494 58.1554 119.291 58.8944C119.089 59.6334 119.128 60.4178 119.401 61.1334C119.675 61.8489 120.17 62.4581 120.814 62.8723C121.457 63.2865 122.216 63.4841 122.98 63.4361H124.011C120.779 63.4455 117.682 64.7357 115.397 67.0248C113.112 69.3139 111.824 72.4159 111.815 75.6532H99.6184V7.19482H175.284V31.629L185.063 24.2916H207.037Z" fill="#FF5964"/>
<path d="M131.336 53.6408V63.4358H122.98C122.216 63.4838 121.457 63.2863 120.814 62.8721C120.17 62.4579 119.675 61.8486 119.401 61.1331C119.128 60.4176 119.089 59.6331 119.291 58.8941C119.494 58.1551 119.926 57.5001 120.526 57.0245L123.442 54.1395C124.829 52.786 126.393 51.2188 127.673 49.9009C128.728 51.3007 129.959 52.5578 131.336 53.6408Z" fill="#FFE74C"/>
<path d="M163.053 59.8745C163.045 60.6606 162.783 61.423 162.306 62.0473C161.943 62.5238 161.466 62.9009 160.919 63.1437C160.372 63.3866 159.773 63.4872 159.177 63.4364H150.892V53.7838C152.177 52.7107 153.345 51.5049 154.377 50.1864L154.554 49.9727C157.115 52.5728 160.777 56.2415 161.63 57.0251C162.07 57.3587 162.427 57.7893 162.674 58.2835C162.92 58.7777 163.05 59.3221 163.053 59.8745Z" fill="#FFE74C"/>
<path d="M158.217 31.3084V36.5443C150.892 36.5443 140.154 34.2291 136.242 26.7493C136.242 29.207 131.336 34.0867 124.011 34.0867V31.3084C124.011 23.2231 124.011 14.5322 141.114 14.5322C158.217 14.5322 158.217 23.2231 158.217 31.3084Z" fill="#FFE74C"/>
<path d="M207.037 31.8073C206.737 31.8025 206.439 31.8582 206.161 31.971C205.882 32.0839 205.63 32.2516 205.417 32.4643C205.205 32.6769 205.038 32.9301 204.925 33.2089C204.812 33.4876 204.757 33.7862 204.761 34.0869V73.3738H173.755C173.387 71.0956 172.482 68.9382 171.115 67.08C169.749 65.2218 167.96 63.7164 165.897 62.6884C166.572 61.4782 166.793 60.0661 166.519 58.7073C166.245 57.3485 165.495 56.1327 164.404 55.2797L158.75 49.6521C160.686 46.4254 161.706 42.731 161.701 38.9666V31.6292V31.3086C161.701 23.2945 161.701 12.3597 142.358 12.2172C135.105 12.1816 130.091 13.6776 126.962 16.7764C123.833 19.8752 123.015 24.8261 122.98 29.2072C122.944 29.9195 122.944 30.5963 122.944 31.3086V39.0022C122.97 42.7496 124.015 46.4192 125.966 49.6164L120.277 55.2797C119.509 55.8723 118.904 56.6505 118.519 57.5414C118.133 58.4323 117.98 59.4067 118.073 60.3732C118.15 61.1806 118.38 61.9661 118.748 62.6884C116.689 63.716 114.904 65.222 113.543 67.0808C112.182 68.9395 111.285 71.0972 110.926 73.3738H104.347V9.47464H165.542C166.101 9.40477 166.615 9.13273 166.988 8.70967C167.361 8.2866 167.567 7.74165 167.567 7.17726C167.567 6.61287 167.361 6.06792 166.988 5.64486C166.615 5.22179 166.101 4.94975 165.542 4.87988H102.036C101.429 4.88924 100.851 5.13728 100.425 5.57045C99.9991 6.00362 99.7605 6.58717 99.7606 7.19507V90.3281C99.7605 90.936 99.9991 91.5196 100.425 91.9528C100.851 92.3859 101.429 92.634 102.036 92.6433H140.403L137.38 107.603H130.127C129.567 107.673 129.053 107.945 128.68 108.368C128.307 108.791 128.101 109.336 128.101 109.9C128.101 110.465 128.307 111.01 128.68 111.433C129.053 111.856 129.567 112.128 130.127 112.198H178.947C179.272 112.238 179.602 112.209 179.915 112.112C180.228 112.016 180.517 111.853 180.763 111.636C181.008 111.419 181.205 111.151 181.34 110.852C181.474 110.553 181.544 110.229 181.544 109.9C181.544 109.572 181.474 109.248 181.34 108.948C181.205 108.649 181.008 108.382 180.763 108.165C180.517 107.948 180.228 107.785 179.915 107.688C179.602 107.591 179.272 107.562 178.947 107.603H171.693L168.671 92.6433H207.037C207.644 92.634 208.223 92.3859 208.648 91.9528C209.074 91.5196 209.313 90.936 209.313 90.3281V34.0869C209.318 33.7862 209.262 33.4876 209.149 33.2089C209.037 32.9301 208.869 32.6769 208.657 32.4643C208.445 32.2516 208.192 32.0839 207.914 31.971C207.635 31.8582 207.337 31.8025 207.037 31.8073ZM161.346 58.6991L161.524 58.8416C161.699 58.9713 161.837 59.1448 161.925 59.3448C162.012 59.5449 162.045 59.7644 162.022 59.9814C162.013 60.1484 161.97 60.3119 161.897 60.4622C161.824 60.6125 161.721 60.7464 161.595 60.8561C161.469 60.9658 161.322 61.0489 161.163 61.1006C161.004 61.1522 160.837 61.1713 160.67 61.1568H154.377V54.7811C154.912 54.3218 155.422 53.8343 155.906 53.3207L161.346 58.6991ZM153.95 48.5835C152.179 50.8672 149.935 52.7386 147.372 54.0687L147.123 54.2112C145.652 54.9619 144.023 55.3502 142.372 55.344C140.721 55.3378 139.095 54.9373 137.629 54.1756L137.487 54.1043L137.167 53.9975C136.02 53.394 134.937 52.6781 133.931 51.8604C132.725 50.901 131.649 49.7873 130.731 48.5479C128.663 45.782 127.541 42.422 127.531 38.9666V36.224C130.373 35.8908 133.087 34.8499 135.425 33.1964C136.284 32.601 137.071 31.9078 137.771 31.1306C142.394 36.1884 150.145 38.3611 157.15 38.7529V38.9666C157.13 42.4313 156.009 45.7996 153.95 48.5835ZM154.377 63.2582V63.472V63.2582ZM149.825 57.9511V62.0828L148.19 63.472H148.119C146.523 64.8964 144.46 65.6835 142.323 65.6835C140.185 65.6835 138.123 64.8964 136.527 63.472H136.491L134.856 62.0828V57.9511L135.176 58.1292L135.318 58.2004L135.673 58.3429C137.756 59.3998 140.059 59.949 142.394 59.9457C144.793 59.9415 147.157 59.3678 149.292 58.2717L149.576 58.0936L149.825 57.9511ZM137.025 24.5056C135.211 24.8261 135.176 26.7139 135.176 26.7139C135.033 27.6043 132.367 30.81 127.531 31.5936H127.495C127.524 31.4894 127.536 31.3811 127.531 31.273C127.531 26.8207 127.531 22.6178 130.162 19.982C132.793 17.3463 136.456 16.7408 142.323 16.7764C157.15 16.8832 157.15 23.2233 157.15 31.273V31.5936V34.1225C150.394 33.6951 142.429 31.3086 139.478 25.6453V25.5741C139.234 25.1593 138.865 24.8325 138.425 24.6405C137.984 24.4486 137.494 24.4013 137.025 24.5056ZM123.122 58.8416L123.335 58.6991L128.775 53.3207C129.247 53.8341 129.745 54.3216 130.269 54.7811V61.1568H124.011C123.729 61.188 123.446 61.1251 123.204 60.9778C122.962 60.8305 122.776 60.6072 122.675 60.3426C122.573 60.0781 122.562 59.7874 122.643 59.5158C122.724 59.2442 122.892 59.0071 123.122 58.8416ZM130.304 63.472H130.269V63.1514C130.263 63.2595 130.275 63.3677 130.304 63.472ZM125.255 65.7159H132.082L133.504 66.9625C135.942 69.1234 139.085 70.3163 142.341 70.3163C145.596 70.3163 148.739 69.1234 151.177 66.9625L152.599 65.7159H159.426C161.658 65.7204 163.823 66.4787 165.572 67.8683C167.32 69.258 168.55 71.1976 169.062 73.3738H115.584C116.103 71.1947 117.339 69.2542 119.094 67.865C120.848 66.4757 123.019 65.7187 125.255 65.7159ZM142.038 107.603L145.061 92.6433H164.013L167.035 107.603H142.038ZM204.761 88.0486H104.347V77.9686H204.761V88.0486Z" fill="#35A7FF"/>
<path d="M130.304 63.4719H130.269V63.1514C130.263 63.2594 130.275 63.3677 130.304 63.4719Z" fill="#35A7FF"/>
<path d="M122.98 29.207C122.944 29.9194 122.944 30.5961 122.944 31.3085V29.207H122.98Z" fill="#35A7FF"/>
<path d="M127.531 31.3081V31.5931H127.495C127.521 31.5003 127.533 31.4043 127.531 31.3081Z" fill="#35A7FF"/>
<path d="M130.304 63.4719H130.269V63.1514C130.263 63.2594 130.275 63.3677 130.304 63.4719Z" fill="#35A7FF"/>
<path d="M175.284 33.9442C174.939 33.9334 174.599 33.8484 174.289 33.6949C173.903 33.5067 173.577 33.2128 173.351 32.8472C173.124 32.4816 173.006 32.0593 173.009 31.629V2.27957C173.009 1.67499 173.248 1.09517 173.675 0.667671C174.102 0.240168 174.681 0 175.284 0L209.491 0C210.094 0 210.673 0.240168 211.1 0.667671C211.526 1.09517 211.766 1.67499 211.766 2.27957V24.2917C211.766 24.8996 211.528 25.4831 211.102 25.9163C210.676 26.3495 210.097 26.5975 209.491 26.6069H185.809L176.671 33.4812C176.268 33.7752 175.783 33.9369 175.284 33.9442ZM177.596 4.59476V27.0699L183.676 22.4751C184.079 22.1812 184.564 22.0194 185.063 22.0121H207.179V4.59476H177.596Z" fill="#35A7FF"/>
<path d="M156.972 80.7109H152.101V85.295H156.972V80.7109Z" fill="#35A7FF"/>
<path d="M202.166 11.0059H197.294V15.5899H202.166V11.0059Z" fill="#35A7FF"/>
<path d="M194.841 11.0059H189.97V15.5899H194.841V11.0059Z" fill="#35A7FF"/>
<path d="M187.516 11.0059H182.645V15.5899H187.516V11.0059Z" fill="#35A7FF"/>
<path d="M27.1577 154.397V156.926H21.2315V154.681H5.84896V159.456H21.5664C23.0953 159.456 24.4093 159.998 25.5087 161.082C26.6081 162.183 27.1577 163.499 27.1577 165.031V170.399C27.1577 171.948 26.6081 173.264 25.5087 174.348C24.4093 175.449 23.0953 176 21.5664 176H5.56554C4.03673 176 2.72265 175.458 1.62328 174.374C0.541094 173.29 0 171.965 0 170.399V167.87H5.84896V170.115H21.2315V165.34H5.56554C4.03673 165.34 2.72265 164.798 1.62328 163.714C0.541094 162.63 0 161.305 0 159.739V154.397C0 152.831 0.541094 151.506 1.62328 150.422C2.72265 149.338 4.03673 148.796 5.56554 148.796H21.5664C23.0953 148.796 24.4093 149.346 25.5087 150.448C26.6081 151.532 27.1577 152.848 27.1577 154.397ZM36.8717 154.087H47.8224C49.2996 154.087 50.5794 154.629 51.6616 155.713C52.7437 156.797 53.2848 158.079 53.2848 159.559V176H47.5132V159.869H36.8717V176H31.1V146.912H36.8717V154.087ZM61.9939 176H56.2222V154.087H61.9939V176ZM56.2222 152.719V146.912H61.9939V152.719H56.2222ZM80.9837 154.087V146.912H86.7553V176H70.0072C68.4956 176 67.2073 175.458 66.1423 174.374C65.0772 173.29 64.5447 172.008 64.5447 170.528V159.559C64.5447 158.079 65.0772 156.797 66.1423 155.713C67.2073 154.629 68.4956 154.087 70.0072 154.087H80.9837ZM80.9837 159.869H70.3422V170.219H80.9837V159.869ZM106.132 154.087V146.912H111.903V176H95.1552C93.6436 176 92.3552 175.458 91.2902 174.374C90.2252 173.29 89.6927 172.008 89.6927 170.528V159.559C89.6927 158.079 90.2252 156.797 91.2902 155.713C92.3552 154.629 93.6436 154.087 95.1552 154.087H106.132ZM106.132 159.869H95.4902V170.219H106.132V159.869ZM131.46 170.219V154.087H137.232V170.528C137.232 172.008 136.691 173.29 135.608 174.374C134.543 175.458 133.255 176 131.743 176H120.509C118.998 176 117.709 175.458 116.644 174.374C115.579 173.29 115.047 172.008 115.047 170.528V154.087H120.818V170.219H131.46ZM162.38 154.087V159.869H146.018V170.219H162.405V176H145.709C144.232 176 142.952 175.458 141.87 174.374C140.787 173.29 140.246 172.008 140.246 170.528V159.559C140.246 158.079 140.787 156.797 141.87 155.713C142.952 154.629 144.232 154.087 145.709 154.087H162.38ZM171.243 154.087H182.194C183.671 154.087 184.951 154.629 186.033 155.713C187.115 156.797 187.656 158.079 187.656 159.559V176H181.885V159.869H171.243V176H165.472V146.912H171.243V154.087ZM208.888 148.796L220.277 168.567L231.665 148.796H238.416L222.699 176H217.829L202.111 148.796H208.888ZM246.713 176H240.941V154.087H246.713V176ZM240.941 152.719V146.912H246.713V152.719H240.941ZM255.396 154.087H266.63C268.142 154.087 269.43 154.629 270.495 155.713C271.578 156.797 272.119 158.079 272.119 159.559V167.947H255.705V170.219H272.119V176H255.396C253.919 176 252.639 175.458 251.557 174.374C250.475 173.29 249.934 172.008 249.934 170.528V159.559C249.934 158.079 250.475 156.797 251.557 155.713C252.639 154.629 253.919 154.087 255.396 154.087ZM255.705 159.869V162.888H266.347V159.869H255.705ZM300.513 165.598L304.893 154.087H311L302.781 176H298.4L292.474 162.914L286.831 176H282.477L273.871 154.087H280.003L284.718 165.469L286.342 161.675C286.582 161.09 287.097 159.912 287.888 158.139C288.678 156.35 289.262 154.999 289.64 154.087H295.231L300.513 165.598Z" fill="#FF7C00"/>
</g>
<defs>
<clipPath id="clip0">
<rect width="311" height="176" fill="white"/>
</clipPath>
</defs>
</svg>
