<?xml version="1.0" encoding="UTF-8" standalone="no"?>
<svg
   xmlns:dc="http://purl.org/dc/elements/1.1/"
   xmlns:cc="http://creativecommons.org/ns#"
   xmlns:rdf="http://www.w3.org/1999/02/22-rdf-syntax-ns#"
   xmlns:svg="http://www.w3.org/2000/svg"
   xmlns="http://www.w3.org/2000/svg"
   viewBox="0 0 1201.6003 467.3412"
   xml:space="preserve"
   id="svg2"
   version="1.1"><metadata
     id="metadata8"><rdf:RDF><cc:Work
         rdf:about=""><dc:format>image/svg+xml</dc:format><dc:type
           rdf:resource="http://purl.org/dc/dcmitype/StillImage" /></cc:Work></rdf:RDF></metadata><defs
     id="defs6"><clipPath
       id="clipPath26"
       clipPathUnits="userSpaceOnUse"><path
         id="path24"
         d="M 0,1000 H 1000 V 0 H 0 Z" /></clipPath><clipPath
       id="clipPath62"
       clipPathUnits="userSpaceOnUse"><path
         id="path60"
         d="m 35.315,711.319 77.576,-340.415 299.522,68.255 -77.574,340.417 z" /></clipPath></defs><g
     transform="matrix(1.3333333,0,0,-1.3333333,-60.325391,1000.4901)"
     id="g10"><g
       transform="translate(178.5005,494.3398)"
       id="g12"><path
         id="path14"
         style="fill:#305280;fill-opacity:1;fill-rule:nonzero;stroke:none"
         d="m 0,0 v -92.313 h -22.486 v 52.074 l -21.435,-52.074 h -16.7 l -21.435,52.074 v -52.074 h -22.486 V 0 h 25.774 L -52.205,-63.646 -25.774,0 Z" /></g><g
       transform="translate(273.0425,475.4043)"
       id="g16"><path
         id="path18"
         style="fill:#305280;fill-opacity:1;fill-rule:nonzero;stroke:none"
         d="M 0,0 H 23.933 L 40.633,-54.572 57.334,0 H 81.267 L 55.23,-73.377 H 26.037 Z" /></g><g
       id="g20"><g
         clip-path="url(#clipPath26)"
         id="g22"><g
           transform="translate(405.4614,453.7725)"
           id="g28"><path
             id="path30"
             style="fill:#305280;fill-opacity:1;fill-rule:nonzero;stroke:none"
             d="m 0,0 c -2.63,2.147 -5.743,3.222 -9.337,3.222 -3.595,0 -6.62,-1.075 -9.073,-3.222 -2.455,-2.149 -3.99,-4.932 -4.603,-8.351 H 4.471 C 4.12,-4.932 2.63,-2.149 0,0 m -9.6,-52.666 c -10.696,0 -19.462,3.439 -26.299,10.323 -6.838,6.881 -10.257,16.021 -10.257,27.417 0,11.396 3.396,20.469 10.191,27.221 6.793,6.75 15.582,10.126 26.365,10.126 10.783,0 19.725,-3.333 26.826,-9.994 7.101,-6.663 10.651,-15.912 10.651,-27.746 0,-2.544 -0.176,-4.911 -0.525,-7.102 h -50.496 c 0.437,-3.244 1.884,-5.896 4.339,-7.956 2.453,-2.061 5.106,-3.09 7.956,-3.09 2.848,0 4.974,0.283 6.378,0.855 1.401,0.569 2.432,1.138 3.09,1.71 0.657,0.569 1.512,1.511 2.564,2.827 H 25.511 C 23.407,-35.439 19.199,-41.379 12.887,-45.894 6.575,-50.409 -0.921,-52.666 -9.6,-52.666" /></g><g
           transform="translate(455.6924,494.3398)"
           id="g32"><path
             id="path34"
             style="fill:#305280;fill-opacity:1;fill-rule:nonzero;stroke:none"
             d="m 0,0 h 22.486 v -75.218 h 28.01 V -92.313 H 0 Z" /></g><g
           transform="translate(563.3887,425.3027)"
           id="g36"><path
             id="path38"
             style="fill:#305280;fill-opacity:1;fill-rule:nonzero;stroke:none"
             d="m 0,0 c 3.242,3.156 4.865,7.627 4.865,13.413 0,5.786 -1.623,10.234 -4.865,13.347 -3.244,3.111 -6.97,4.669 -11.178,4.669 -4.208,0 -7.934,-1.578 -11.176,-4.735 -3.246,-3.156 -4.867,-7.627 -4.867,-13.413 0,-5.786 1.621,-10.236 4.867,-13.346 3.242,-3.114 6.968,-4.669 11.176,-4.669 4.208,0 7.934,1.578 11.178,4.734 m -40.37,-13.676 c -6.489,7.013 -9.732,15.997 -9.732,26.957 0,10.958 3.243,19.966 9.732,27.024 6.486,7.055 14.399,10.586 23.735,10.586 9.337,0 16.503,-3.465 21.5,-10.389 v 9.6 H 27.352 V -23.275 H 4.865 v 10.651 c -5.436,-7.715 -12.712,-11.572 -21.829,-11.572 -9.118,0 -16.92,3.506 -23.406,10.52" /></g><g
           transform="translate(660.3027,475.4043)"
           id="g40"><path
             id="path42"
             style="fill:#305280;fill-opacity:1;fill-rule:nonzero;stroke:none"
             d="M 0,0 H 22.487 V -73.377 H 0 v 10.783 c -4.647,-7.716 -12.055,-11.572 -22.223,-11.572 -8.416,0 -15.233,2.805 -20.448,8.416 -5.217,5.609 -7.824,13.236 -7.824,22.881 V 0 h 22.354 v -39.845 c 0,-4.734 1.249,-8.395 3.748,-10.98 2.498,-2.587 5.938,-3.879 10.323,-3.879 4.382,0 7.824,1.292 10.323,3.879 2.498,2.585 3.747,6.246 3.747,10.98 z" /></g><g
           transform="translate(725.001,475.4043)"
           id="g44"><path
             id="path46"
             style="fill:#305280;fill-opacity:1;fill-rule:nonzero;stroke:none"
             d="m 0,0 v -10.783 c 4.646,7.713 12.053,11.572 22.224,11.572 8.416,0 15.231,-2.807 20.448,-8.416 5.215,-5.611 7.824,-13.238 7.824,-22.881 V -73.377 H 28.141 v 39.845 c 0,4.733 -1.249,8.392 -3.747,10.979 -2.499,2.585 -5.941,3.88 -10.324,3.88 -4.384,0 -7.824,-1.295 -10.322,-3.88 C 1.249,-25.14 0,-28.799 0,-33.532 V -73.377 H -22.486 V 0 Z" /></g><g
           transform="translate(799.3633,411.3643)"
           id="g48"><path
             id="path50"
             style="fill:#305280;fill-opacity:1;fill-rule:nonzero;stroke:none"
             d="m 0,0 c -6.795,6.838 -10.191,15.954 -10.191,27.352 0,11.395 3.396,20.491 10.191,27.286 6.793,6.793 15.583,10.191 26.365,10.191 8.943,0 16.525,-2.216 22.75,-6.641 C 55.339,53.76 59.458,47.426 61.476,39.187 H 37.148 c -2.103,4.382 -5.545,6.575 -10.322,6.575 -4.779,0 -8.33,-1.69 -10.651,-5.064 -2.324,-3.376 -3.486,-7.824 -3.486,-13.346 0,-5.524 1.162,-9.974 3.486,-13.348 2.321,-3.376 5.72,-5.063 10.19,-5.063 2.805,0 4.997,0.481 6.575,1.447 1.579,0.964 2.98,2.674 4.208,5.129 H 61.476 C 59.458,7.627 55.296,1.357 48.983,-3.288 42.672,-7.936 35.131,-10.258 26.365,-10.258 15.583,-10.258 6.793,-6.839 0,0" /></g><g
           transform="translate(895.9482,499.3369)"
           id="g52"><path
             id="path54"
             style="fill:#305280;fill-opacity:1;fill-rule:nonzero;stroke:none"
             d="m 0,0 v -34.716 c 4.646,7.713 12.053,11.572 22.224,11.572 8.416,0 15.231,-2.806 20.448,-8.416 5.215,-5.611 7.824,-13.238 7.824,-22.88 V -97.31 H 28.141 v 39.845 c 0,4.734 -1.249,8.393 -3.747,10.98 -2.499,2.585 -5.941,3.88 -10.324,3.88 -4.384,0 -7.824,-1.295 -10.322,-3.88 C 1.249,-49.072 0,-52.731 0,-57.465 V -97.31 H -22.486 V 0 Z" /></g></g></g><g
       id="g56"><g
         clip-path="url(#clipPath62)"
         id="g58"><g
           transform="translate(255.6275,676.8934)"
           id="g64"><path
             id="path66"
             style="fill:#16a5e6;fill-opacity:1;fill-rule:nonzero;stroke:none"
             d="m 0,0 -43.375,71.912 c -0.922,1.526 -2.906,2.02 -4.434,1.097 l -20.345,-12.272 -0.063,-0.221 -0.208,0.059 -10.734,-6.476 16.158,-26.788 -12.105,-7.305 -16.16,26.79 -10.736,-6.477 -0.046,-0.209 -0.225,0.047 -20.213,-12.192 c -1.528,-0.922 -2.02,-2.907 -1.098,-4.435 l 43.376,-71.912 c 0.921,-1.527 2.908,-2.019 4.435,-1.097 L -1.095,-4.435 C 0.432,-3.513 0.922,-1.527 0,0 m 54.063,-64.008 -48.399,13.862 -10.308,-49.272 14.976,-3.149 4.455,21.314 27.026,-44.802 14.147,8.533 -27.02,44.796 20.924,-5.997 z m 0.607,74.459 67.846,-112.479 c 1.438,-2.389 0.671,-5.494 -1.718,-6.935 L 3.994,-179.418 c -2.391,-1.442 -5.495,-0.671 -6.936,1.717 l -67.845,112.479 c -1.441,2.388 -0.673,5.494 1.717,6.935 L 47.735,12.167 c 2.388,1.442 5.495,0.672 6.935,-1.716 M -3.154,-227.082 c -5.661,9.385 -17.858,12.404 -27.243,6.742 -9.386,-5.66 -12.404,-17.859 -6.743,-27.242 5.66,-9.386 17.858,-12.407 27.243,-6.746 9.386,5.661 12.404,17.86 6.743,27.246 m 16.994,10.249 c 11.322,-18.771 5.285,-43.165 -13.486,-54.489 -18.77,-11.322 -43.167,-5.283 -54.488,13.488 -11.322,18.771 -5.285,43.165 13.485,54.489 18.771,11.321 43.168,5.282 54.489,-13.488 m 104.498,85.781 -109.311,-65.933 c 5.28,-3.808 9.896,-8.711 13.466,-14.627 0.126,-0.212 0.22,-0.432 0.343,-0.645 l 105.94,63.9 c 4.777,2.883 6.315,9.092 3.432,13.871 -2.881,4.78 -9.093,6.317 -13.87,3.434 M -204.98,-24.305 c -10.724,17.777 -4.987,40.967 12.795,51.691 17.778,10.724 40.968,4.985 51.69,-12.795 l 121.966,-202.205 c -7.126,0.244 -14.35,-1.062 -21.192,-3.993 L -157.8,4.154 c -4.967,8.238 -15.71,10.897 -23.948,5.929 -8.238,-4.97 -10.898,-15.712 -5.929,-23.95 2.883,-4.779 1.346,-10.989 -3.434,-13.871 -4.777,-2.881 -10.986,-1.345 -13.869,3.433" /></g></g></g></g></svg>