<?xml version="1.0" encoding="utf-8"?>
<svg version="1.1" id="Layer_1" xmlns="http://www.w3.org/2000/svg" xmlns:xlink="http://www.w3.org/1999/xlink" x="0px" y="0px"
	  viewBox="0 0 1125 581" enable-background="new 0 0 1125 581" xml:space="preserve">
<g>
	<text transform="matrix(1 0 0 1 113.0073 451.2319)"><tspan x="0" y="0" fill="#203464" font-family="'Poppins'" font-size="137.0187">M  </tspan><tspan x="211.689" y="0" fill="#203464" font-family="'Poppins'" font-size="137.0187" letter-spacing="-35"> </tspan><tspan x="217.168" y="0" fill="#203464" font-family="'Poppins'" font-size="137.0187">v</tspan><tspan x="302.941" y="0" fill="#203464" font-family="'Poppins'" font-size="137.0187" letter-spacing="8">e</tspan><tspan x="397.757" y="0" fill="#203464" font-family="'Poppins'" font-size="137.0187">Launch</tspan></text>
	<g>
		<g>
			<defs>
				
					<rect id="SVGID_1_" x="119.434" y="88.849" transform="matrix(-0.975 0.2222 -0.2222 -0.975 612.1353 472.6292)" width="320.096" height="363.797"/>
			</defs>
			<clipPath id="SVGID_2_">
				<use xlink:href="#SVGID_1_"  overflow="visible"/>
			</clipPath>
			<path clip-path="url(#SVGID_2_)" fill="#1795C2" d="M98.995,190.151c-11.174-18.523-5.196-42.687,13.332-53.86
				c18.525-11.175,42.687-5.194,53.86,13.332l127.085,210.693c-7.425-0.254-14.953,1.106-22.081,4.161L148.155,160.498
				c-5.176-8.584-16.369-11.354-24.953-6.178c-8.584,5.178-11.356,16.371-6.178,24.955c3.004,4.979,1.402,11.45-3.578,14.453
				C108.469,196.73,101.999,195.13,98.995,190.151L98.995,190.151z M435.884,301.379l-113.899,68.701
				c5.501,3.967,10.311,9.076,14.031,15.241c0.132,0.22,0.229,0.45,0.357,0.671L446.76,319.41c4.978-3.003,6.58-9.474,3.576-14.453
				C447.334,299.977,440.862,298.375,435.884,301.379L435.884,301.379z M327,390.761c11.797,19.559,5.506,44.976-14.052,56.775
				c-19.559,11.797-44.979,5.505-56.776-14.054c-11.797-19.558-5.506-44.977,14.052-56.775
				C289.783,364.91,315.203,371.202,327,390.761L327,390.761z M309.292,401.44c-5.899-9.779-18.607-12.925-28.387-7.026
				c-9.779,5.898-12.924,18.609-7.026,28.386c5.898,9.78,18.608,12.927,28.387,7.029C312.046,423.93,315.191,411.22,309.292,401.44
				L309.292,401.44z M369.544,153.937l70.693,117.2c1.499,2.489,0.7,5.725-1.789,7.226L316.74,351.774
				c-2.491,1.502-5.725,0.7-7.227-1.789l-70.692-117.2c-1.502-2.488-0.702-5.724,1.789-7.227l121.707-73.411
				C364.806,150.646,368.042,151.448,369.544,153.937L369.544,153.937z M368.91,231.52l-50.43-14.443l-10.741,51.34l15.605,3.281
				l4.641-22.209l28.16,46.683l14.741-8.891l-28.154-46.675l21.802,6.249L368.91,231.52z M312.579,164.826l-45.195-74.93
				c-0.961-1.591-3.029-2.104-4.62-1.143l-21.199,12.787l-0.066,0.231l-0.216-0.062l-11.184,6.749l16.836,27.913l-12.613,7.611
				l-16.839-27.914l-11.186,6.749l-0.048,0.218l-0.234-0.049l-21.062,12.703c-1.591,0.96-2.104,3.029-1.144,4.622l45.196,74.93
				c0.96,1.591,3.031,2.104,4.622,1.143l77.813-46.935C313.029,168.487,313.54,166.417,312.579,164.826L312.579,164.826z
				 M312.579,164.826"/>
		</g>
	</g>
</g>
</svg>
